<?xml version="1.0" encoding="UTF-8"?>
<svg id="Bills" xmlns="http://www.w3.org/2000/svg" version="1.1" viewBox="0 0 274.4 158.3">
  <defs>
    <style>
      .cls-1 {
        fill: #6bc9a5;
        stroke-width: 0px;
      }

      .cls-2 {
        fill: #00ad6a;
        stroke: #000;
        stroke-miterlimit: 10;
      }
    </style>
  </defs>
  <g id="Bill1">
    <path class="cls-2" d="M4.3,61.2c-1.6-1.8,1.4-2.8,1.4-2.8,0,0,94-35,131.5-25.5,44.4,11.2,108.6-37,108.5-30.5,0,0,9,17,8,52-.8,26.9,11.4,43.6,16.4,49.3.9,1.1.5,2.7-.9,3.2-15.1,5-93.6,40.5-145.6,27.5-29.2-7.3-74.4,14.1-85,22-1.1.8-3-3-5-6-19-24-7-76-29.4-89.2Z"/>
    <ellipse class="cls-1" cx="138.1" cy="81.9" rx="22" ry="25"/>
    <path class="cls-1" d="M239.9,91.7l-35.2,9.3-2.8-11.1s15.1-11,11.4-19.8c-3.4-8.2-19.9-5.4-19.9-5.4l-3.8-12.1,34.2-11.3,16,50.3h0Z"/>
    <path class="cls-1" d="M35.2,73.3l35.1-9.7,2.9,11s-14.9,11.2-11.2,19.9c3.5,8.2,20,5.2,20,5.2l3.9,12-34.1,11.7-16.6-50.2h0Z"/>
  </g>
</svg>